<?xml version="1.0" standalone="no"?>
<!DOCTYPE svg PUBLIC "-//W3C//DTD SVG 20010904//EN"
 "http://www.w3.org/TR/2001/REC-SVG-20010904/DTD/svg10.dtd">
<svg version="1.0" xmlns="http://www.w3.org/2000/svg"
 width="1105.000000pt" height="682.000000pt" viewBox="0 0 1105.000000 682.000000"
 preserveAspectRatio="xMidYMid meet">

<g transform="translate(0.000000,682.000000) scale(0.100000,-0.100000)"
fill="#ffffff" stroke="none">
<path d="M1304 6765 c101 -714 297 -1477 533 -2070 88 -223 89 -224 208 -470
120 -246 218 -417 370 -645 159 -238 268 -375 491 -619 l41 -45 54 39 c30 22
56 42 59 45 3 3 39 33 80 65 41 33 77 62 80 65 3 3 30 25 60 50 30 25 57 47
60 50 3 3 39 34 80 69 287 243 668 617 996 976 193 211 529 604 523 609 -2 2
-47 20 -99 40 -52 20 -104 41 -115 46 -11 5 -60 25 -110 43 -90 34 -222 86
-515 199 -278 108 -632 249 -674 267 -23 11 -70 31 -106 46 -486 202 -1014
494 -1400 773 -91 66 -285 216 -300 232 -3 3 -48 41 -100 85 -52 44 -123 107
-159 140 l-64 60 7 -50z"/>
<path d="M8080 6764 c-267 -32 -431 -80 -675 -199 -411 -201 -870 -585 -1368
-1146 -104 -117 -104 -117 -196 -224 -47 -55 -89 -101 -93 -103 -20 -9 -4 -30
40 -51 26 -12 101 -52 167 -88 482 -264 831 -535 1134 -878 200 -226 348 -438
514 -736 40 -70 189 -368 216 -429 13 -30 37 -83 53 -118 15 -34 28 -65 28
-67 0 -2 11 -28 23 -57 21 -46 53 -124 129 -313 11 -27 22 -52 24 -54 3 -3
234 464 234 473 0 2 32 70 70 151 39 81 70 148 70 150 0 2 36 78 80 170 44 92
80 169 80 171 0 7 285 576 326 651 224 409 452 759 677 1042 199 249 288 315
518 390 197 64 551 120 761 121 47 0 94 3 103 6 16 7 -104 41 -320 91 -60 14
-146 34 -190 44 -162 38 -351 81 -405 91 -55 10 -97 27 -122 50 -8 7 -43 40
-79 73 -131 121 -166 152 -269 234 -227 182 -558 377 -760 447 -226 78 -362
104 -575 109 -88 2 -176 1 -195 -1z"/>
<path d="M5278 4527 c-208 -249 -420 -490 -618 -702 -99 -107 -566 -573 -661
-660 -41 -39 -98 -90 -125 -115 -96 -89 -352 -306 -470 -399 -61 -48 -79 -67
-70 -76 24 -23 136 -105 241 -176 437 -295 946 -506 1477 -613 270 -54 403
-71 702 -91 289 -19 403 -19 713 0 353 22 533 44 923 114 149 27 320 65 320
72 0 14 -221 563 -279 694 -153 341 -263 548 -426 800 -56 88 -153 219 -204
279 -14 17 -44 50 -65 75 -72 83 -279 286 -366 358 -142 118 -379 280 -560
385 -88 50 -395 209 -402 207 -2 0 -60 -69 -130 -152z"/>
<path d="M2855 2237 c-321 -231 -844 -560 -1200 -752 -38 -21 -74 -41 -80 -45
-36 -25 -541 -283 -710 -362 -176 -82 -248 -115 -325 -148 -41 -18 -97 -42
-125 -54 -27 -13 -124 -53 -215 -91 -91 -38 -169 -71 -173 -75 -4 -4 48 -21
115 -38 68 -17 166 -42 218 -56 183 -48 386 -99 440 -112 30 -6 152 -35 270
-63 565 -136 1202 -259 1660 -321 41 -6 107 -15 145 -20 78 -11 375 -42 560
-60 329 -30 881 -40 1200 -20 960 59 1714 303 2300 743 78 59 211 175 297 260
104 104 278 307 261 307 -4 0 -71 -11 -148 -24 -693 -119 -1386 -142 -1980
-65 -797 103 -1457 345 -2078 761 -104 70 -287 207 -332 249 -17 16 -33 29
-36 29 -3 0 -32 -19 -64 -43z"/>
</g>
</svg>
