<?xml version="1.0" standalone="no"?>
<!DOCTYPE svg PUBLIC "-//W3C//DTD SVG 20010904//EN"
 "http://www.w3.org/TR/2001/REC-SVG-20010904/DTD/svg10.dtd">
<svg version="1.0" xmlns="http://www.w3.org/2000/svg"
 width="1225.000000pt" height="457.000000pt" viewBox="0 0 1225.000000 457.000000"
 preserveAspectRatio="xMidYMid meet">

<g transform="translate(0.000000,457.000000) scale(0.100000,-0.100000)"
fill="#ffffff" stroke="none">
<path d="M685 4535 c-28 -27 -31 -61 -15 -178 5 -40 15 -108 21 -152 57 -423
177 -816 341 -1125 46 -87 105 -183 135 -220 6 -8 29 -38 50 -67 21 -28 57
-72 81 -98 23 -25 42 -49 42 -53 0 -9 -182 -129 -328 -214 -234 -139 -590
-303 -897 -414 -70 -26 -82 -34 -98 -65 -31 -64 5 -114 99 -138 21 -5 95 -26
164 -46 215 -61 668 -171 840 -204 346 -64 456 -75 795 -75 309 -1 341 1 530
40 407 82 730 286 947 599 59 86 152 246 202 349 77 159 146 307 146 312 0 13
164 333 213 417 63 105 154 236 200 286 73 77 191 101 498 101 191 1 454 -19
480 -36 14 -8 77 24 88 44 16 31 13 77 -6 101 -20 24 -213 101 -458 182 -138
46 -481 139 -514 139 -8 0 -53 33 -100 73 -364 310 -702 376 -1046 204 -191
-95 -428 -302 -654 -570 -40 -48 -78 -87 -84 -87 -10 0 -156 56 -496 192 -322
128 -503 224 -693 366 -87 65 -253 221 -341 320 -33 36 -43 42 -78 42 -29 0
-47 -7 -64 -25z m232 -361 c21 -19 74 -63 118 -98 229 -179 456 -297 885 -460
265 -101 310 -120 310 -132 0 -16 -211 -253 -343 -385 -108 -109 -275 -258
-359 -322 l-37 -28 -34 38 c-57 63 -131 155 -159 198 -167 257 -258 469 -344
805 -30 118 -84 380 -84 410 0 16 6 12 47 -26z m2659 16 c158 -28 311 -111
484 -264 68 -61 80 -67 150 -81 41 -9 125 -29 185 -44 122 -32 126 -29 -54
-51 -102 -13 -190 -39 -245 -71 -39 -23 -144 -150 -223 -269 -96 -145 -193
-332 -370 -710 -79 -167 -85 -180 -93 -175 -4 2 -17 32 -30 67 -80 220 -222
464 -356 612 -102 112 -259 230 -415 312 -38 20 -69 40 -69 45 0 16 140 171
260 289 284 278 524 384 776 340z m-1071 -821 c239 -125 420 -293 551 -514 55
-94 88 -163 165 -350 69 -168 90 -147 -190 -192 -136 -22 -560 -25 -666 -5
-265 50 -452 123 -641 249 -47 31 -87 59 -89 63 -3 5 16 25 42 46 215 177 527
492 698 707 17 20 35 37 40 37 6 0 47 -19 90 -41z m-992 -881 c18 -12 34 -25
37 -29 3 -3 43 -31 90 -62 298 -193 638 -287 1035 -287 147 0 373 21 493 46
34 7 27 -10 -35 -77 -117 -127 -267 -229 -428 -293 -214 -84 -399 -117 -700
-123 -387 -9 -793 50 -1399 203 -210 53 -223 58 -181 74 147 56 532 245 705
348 58 34 157 98 220 141 63 44 119 80 123 80 5 1 23 -9 40 -21z"/>
<path d="M8420 4103 c-201 -19 -365 -64 -510 -141 -332 -177 -555 -473 -636
-843 -25 -114 -30 -333 -10 -465 52 -351 262 -676 556 -861 293 -184 673 -241
1020 -152 507 131 868 557 921 1088 29 294 -43 584 -209 836 -47 72 -206 239
-277 291 -99 72 -245 148 -354 183 -157 51 -365 77 -501 64z m270 -597 c123
-34 192 -75 283 -168 224 -232 246 -640 50 -916 -175 -245 -534 -323 -823
-179 -94 47 -215 169 -262 267 -53 107 -70 178 -75 315 -9 228 56 395 214 549
141 137 397 192 613 132z"/>
<path d="M10980 4104 c-337 -37 -571 -141 -785 -353 -169 -166 -279 -378 -337
-646 -17 -83 -17 -419 1 -510 96 -488 442 -844 930 -956 164 -38 412 -51 550
-28 146 23 330 80 421 131 191 106 240 165 240 288 0 71 -21 123 -68 173 -64
67 -103 82 -212 82 l-95 0 -105 -55 c-166 -88 -240 -105 -412 -97 -130 6 -200
23 -302 73 -126 61 -221 155 -286 282 -32 64 -38 103 -17 120 9 8 227 12 713
14 655 3 702 4 749 22 104 39 188 115 237 216 57 117 50 256 -24 475 -113 333
-371 591 -703 704 -130 44 -383 77 -495 65z m300 -559 c166 -57 296 -186 350
-349 22 -66 19 -90 -11 -106 -11 -6 -229 -10 -563 -10 -482 0 -546 2 -560 16
-19 19 -14 44 25 131 70 157 205 274 374 325 82 24 304 20 385 -7z"/>
<path d="M5770 4040 c-97 -20 -183 -87 -227 -179 -25 -51 -27 -66 -27 -178 -1
-121 -1 -123 27 -150 l27 -28 490 -3 c273 -1 490 -6 490 -11 0 -5 -16 -29 -35
-53 -44 -54 -39 -47 -110 -143 -63 -84 -74 -99 -115 -149 -14 -17 -58 -74 -98
-126 -39 -52 -124 -162 -187 -245 -480 -623 -463 -599 -516 -720 -8 -19 -14
-88 -17 -182 l-4 -153 32 -30 32 -30 777 0 776 0 63 22 c75 26 147 91 182 165
19 39 25 69 28 155 5 122 1 144 -28 176 l-21 22 -534 0 c-316 0 -536 4 -540 9
-6 10 49 85 198 271 7 8 39 51 72 95 63 84 65 86 117 151 18 23 58 74 88 114
30 40 89 116 130 169 41 53 88 114 105 136 16 22 35 47 42 55 165 200 267 355
298 453 32 99 46 286 26 336 -27 63 -6 61 -793 60 -392 -1 -729 -5 -748 -9z"/>
<path d="M9684 1306 c-60 -15 -124 -47 -176 -88 l-37 -29 -3 53 -3 53 -37 3
c-46 4 -81 -18 -102 -63 -14 -29 -16 -105 -16 -619 0 -568 1 -586 19 -596 25
-13 97 -13 122 0 18 10 19 23 19 221 l0 211 41 -36 c57 -48 111 -72 200 -86
150 -24 276 16 368 116 89 98 121 198 121 382 0 106 -4 134 -25 199 -51 151
-143 241 -281 277 -72 19 -139 19 -210 2z m152 -151 c70 -21 118 -64 156 -143
32 -65 33 -70 33 -192 0 -121 -2 -127 -33 -192 -52 -108 -124 -151 -244 -150
-178 2 -289 155 -276 378 8 145 81 257 190 295 65 22 109 24 174 4z"/>
<path d="M10535 1307 c-66 -20 -113 -47 -145 -83 -35 -40 -38 -72 -10 -101 40
-44 104 -37 173 19 25 21 39 23 130 23 80 0 110 -4 140 -19 58 -29 88 -75 94
-146 l6 -60 -129 0 c-145 0 -278 -23 -359 -61 -114 -54 -173 -157 -163 -284
13 -156 130 -260 307 -272 124 -9 206 16 294 89 l47 39 0 -45 c0 -59 18 -76
80 -76 87 0 80 -31 80 359 0 376 -4 414 -55 494 -33 51 -82 88 -150 112 -62
22 -280 30 -340 12z m382 -571 c-10 -99 -72 -187 -162 -231 -151 -74 -305 -19
-305 110 0 63 30 107 90 134 69 32 113 39 254 40 l129 1 -6 -54z"/>
<path d="M11185 1269 c-33 -40 -31 -85 8 -145 13 -21 64 -106 112 -189 49 -82
114 -194 146 -249 33 -54 59 -105 59 -113 0 -14 -32 -74 -152 -286 -21 -38
-38 -72 -38 -77 0 -14 -49 -40 -75 -40 -36 0 -85 -50 -85 -87 0 -16 7 -39 16
-52 16 -22 22 -23 89 -19 80 5 125 27 162 76 19 26 291 519 423 767 29 55 70
131 92 168 21 38 38 70 38 72 0 2 14 27 30 55 51 87 34 150 -41 150 -58 0 -44
22 -278 -414 -60 -112 -63 -116 -87 -116 -14 0 -28 11 -39 33 -26 50 -36 68
-163 287 -116 202 -118 205 -154 208 -30 3 -40 -2 -63 -29z"/>
</g>
</svg>
