<?xml version="1.0" standalone="no"?>
<!DOCTYPE svg PUBLIC "-//W3C//DTD SVG 20010904//EN"
 "http://www.w3.org/TR/2001/REC-SVG-20010904/DTD/svg10.dtd">
<svg version="1.0" xmlns="http://www.w3.org/2000/svg"
 width="1350.000000pt" height="801.000000pt" viewBox="0 0 1350.000000 801.000000"
 preserveAspectRatio="xMidYMid meet">

<g transform="translate(0.000000,801.000000) scale(0.100000,-0.100000)"
fill="#ffffff" stroke="none">
<path d="M1857 7990 c-9 -11 -23 -20 -31 -20 -20 0 -94 -84 -102 -116 -10 -40
3 -309 20 -416 8 -51 20 -136 25 -188 14 -121 29 -230 42 -300 6 -30 17 -100
24 -155 8 -56 18 -112 23 -125 5 -14 12 -55 16 -93 4 -37 11 -80 17 -95 6 -15
14 -54 19 -87 7 -55 25 -138 51 -240 6 -22 14 -61 19 -87 5 -26 15 -71 23
-100 21 -72 36 -132 51 -199 8 -30 18 -64 23 -75 6 -10 13 -37 17 -59 4 -22
13 -56 20 -75 7 -19 18 -53 24 -75 5 -22 15 -55 21 -72 23 -67 33 -99 46 -143
7 -25 25 -76 40 -115 14 -38 30 -83 34 -100 5 -16 16 -43 25 -60 9 -16 16 -34
16 -40 0 -10 65 -175 95 -242 8 -18 21 -48 29 -65 56 -127 76 -170 143 -303
41 -82 86 -170 100 -195 60 -110 160 -279 190 -322 18 -26 33 -50 33 -53 0 -5
78 -121 95 -142 6 -7 28 -38 50 -69 97 -136 250 -324 357 -439 26 -27 48 -60
48 -72 0 -19 -36 -54 -91 -88 -9 -5 -48 -32 -85 -58 -96 -66 -367 -242 -419
-271 -16 -9 -42 -24 -57 -34 -14 -9 -122 -72 -240 -140 -117 -68 -220 -127
-228 -132 -70 -43 -410 -217 -630 -323 -147 -71 -188 -90 -297 -138 -64 -28
-94 -41 -186 -83 -43 -20 -80 -36 -84 -36 -3 0 -24 -9 -47 -19 -23 -11 -72
-32 -111 -46 -38 -15 -74 -31 -79 -36 -6 -5 -17 -9 -26 -9 -8 0 -32 -9 -53
-20 -20 -11 -44 -20 -52 -20 -8 0 -32 -9 -52 -20 -21 -11 -45 -20 -53 -20 -9
0 -24 -6 -35 -14 -11 -7 -36 -17 -55 -21 -19 -4 -44 -14 -55 -21 -11 -8 -28
-14 -38 -14 -10 0 -32 -7 -50 -17 -18 -9 -45 -20 -62 -24 -16 -4 -61 -20 -100
-34 -38 -15 -83 -30 -98 -35 -39 -12 -105 -67 -123 -101 -8 -17 -23 -29 -34
-29 -18 0 -20 -7 -20 -85 0 -78 2 -85 20 -85 11 0 26 -12 34 -28 27 -51 86
-92 162 -111 22 -5 53 -14 69 -19 32 -11 122 -37 245 -72 41 -11 89 -26 105
-31 17 -6 52 -15 80 -21 27 -5 62 -16 77 -24 15 -8 39 -14 53 -14 15 0 41 -6
58 -14 30 -13 95 -31 217 -60 30 -7 65 -18 77 -24 12 -7 32 -12 44 -12 12 0
50 -8 83 -19 78 -24 136 -39 211 -55 33 -7 69 -17 80 -23 11 -6 42 -13 69 -17
27 -3 54 -10 60 -15 7 -6 43 -15 80 -21 38 -6 76 -15 85 -19 9 -5 39 -12 66
-16 28 -4 61 -12 75 -17 14 -5 54 -16 90 -23 36 -8 83 -18 105 -24 43 -11 117
-26 205 -42 30 -6 78 -16 105 -24 28 -8 75 -17 105 -21 30 -4 72 -13 94 -20
21 -8 55 -14 75 -14 20 0 69 -9 110 -20 41 -11 88 -20 104 -20 16 0 55 -6 86
-14 31 -8 83 -17 116 -21 33 -3 92 -13 130 -20 39 -8 108 -19 155 -25 47 -6
117 -15 155 -20 125 -17 247 -30 370 -41 66 -5 181 -16 255 -24 162 -18 1166
-21 1265 -5 33 6 116 15 185 20 69 5 163 16 210 24 78 14 114 20 285 48 33 5
80 15 105 23 25 7 63 16 85 20 22 3 65 13 95 22 30 8 87 24 125 35 39 11 84
24 100 30 17 5 50 16 75 23 53 16 121 40 170 60 19 7 66 26 104 40 38 15 77
31 85 35 9 5 39 19 66 31 59 25 143 67 238 118 38 20 81 42 95 50 15 8 60 36
100 63 41 26 77 48 80 49 4 0 34 20 67 45 33 24 77 56 98 69 21 14 45 33 55
43 9 9 53 46 97 82 92 73 366 348 440 440 28 34 74 94 103 134 30 39 58 72 63
74 5 2 9 10 9 17 0 8 6 18 13 22 10 7 123 169 137 198 3 5 18 30 35 55 38 57
38 57 115 192 36 62 70 122 77 133 16 27 78 147 114 220 17 33 34 67 39 75 15
25 56 110 110 225 29 61 70 148 92 195 47 99 73 155 87 190 6 14 15 32 20 40
8 15 14 27 71 155 61 133 198 423 211 445 5 8 12 23 15 32 10 28 196 394 224
438 5 8 50 87 101 175 93 163 223 364 326 505 122 166 216 283 272 338 34 34
146 92 178 92 10 0 27 7 37 15 11 8 29 15 39 15 11 0 59 9 106 20 167 38 298
52 571 61 327 11 888 -3 1030 -26 52 -8 123 -15 158 -15 35 0 95 -6 135 -14
118 -24 249 -36 295 -27 49 10 110 54 131 96 7 15 22 30 32 32 17 5 19 15 19
89 0 67 -3 84 -15 84 -8 0 -21 12 -29 28 -29 56 -88 90 -281 161 -65 25 -143
56 -190 76 -16 8 -41 16 -55 20 -14 3 -34 10 -45 15 -19 9 -45 19 -135 50 -19
7 -48 18 -65 26 -16 7 -46 17 -65 23 -19 5 -66 21 -105 36 -38 14 -79 29 -90
32 -11 3 -42 13 -70 23 -83 30 -118 41 -165 55 -25 7 -58 18 -75 23 -16 6 -64
20 -105 32 -41 13 -86 27 -100 33 -14 5 -50 16 -80 23 -30 7 -86 22 -125 33
-38 11 -90 25 -115 31 -25 6 -65 17 -90 25 -25 7 -61 16 -80 19 -19 4 -57 13
-85 21 -77 22 -185 46 -240 55 -28 4 -72 15 -98 24 -26 9 -61 16 -77 16 -20 0
-44 13 -77 43 -26 23 -63 56 -82 72 -19 17 -41 37 -50 46 -9 8 -54 46 -101 84
-47 37 -87 71 -90 75 -8 11 -190 142 -255 184 -33 21 -76 49 -95 61 -56 37
-221 128 -275 153 -27 13 -57 27 -66 32 -8 4 -47 20 -85 35 -38 14 -90 35
-116 46 -26 10 -54 19 -62 19 -8 0 -30 6 -48 14 -94 40 -411 91 -568 90 -114
0 -348 -28 -420 -49 -25 -7 -65 -16 -90 -20 -25 -4 -57 -14 -72 -21 -15 -8
-35 -14 -45 -14 -10 -1 -36 -9 -58 -20 -22 -11 -46 -19 -53 -20 -6 0 -29 -9
-49 -20 -21 -11 -45 -20 -54 -20 -9 0 -22 -7 -29 -15 -7 -8 -18 -15 -25 -15
-7 0 -54 -22 -106 -50 -52 -27 -105 -55 -119 -62 -14 -7 -27 -15 -30 -19 -3
-3 -20 -15 -39 -25 -66 -37 -105 -63 -221 -148 -246 -180 -375 -291 -620 -531
-202 -198 -347 -353 -561 -600 -24 -28 -69 -79 -99 -114 -30 -35 -62 -71 -71
-80 -8 -9 -28 -33 -43 -53 -32 -42 -59 -55 -90 -40 -11 5 -55 22 -96 38 -41
15 -84 34 -95 41 -11 7 -27 13 -37 13 -10 0 -35 9 -55 20 -21 11 -45 20 -53
20 -8 0 -24 7 -34 15 -11 8 -27 15 -36 15 -8 0 -32 9 -53 20 -20 11 -43 20
-49 20 -7 1 -31 9 -53 20 -22 11 -46 19 -53 20 -8 0 -26 6 -40 14 -15 7 -54
23 -87 36 -33 12 -80 30 -105 40 -25 10 -72 28 -105 40 -33 13 -72 29 -87 36
-14 8 -32 14 -40 14 -7 0 -30 9 -51 20 -20 11 -44 20 -52 20 -8 0 -32 9 -52
20 -21 11 -45 20 -53 20 -8 0 -24 7 -34 15 -11 8 -26 15 -34 15 -8 0 -34 9
-58 20 -24 11 -64 29 -88 40 -24 11 -47 20 -51 20 -5 0 -29 9 -54 21 -48 22
-90 40 -156 69 -22 10 -56 24 -75 33 -38 16 -513 252 -558 277 -23 13 -74 43
-144 85 -9 5 -38 23 -65 39 -178 107 -570 388 -628 450 -5 6 -49 43 -96 82
-101 85 -394 374 -499 494 -135 152 -160 178 -190 190 -17 7 -30 19 -30 26 0
11 -17 14 -68 14 -55 0 -71 -4 -85 -20z m540 -1007 c144 -128 133 -120 255
-215 134 -105 221 -169 284 -210 27 -18 51 -35 54 -38 3 -3 41 -29 85 -58 44
-28 85 -55 90 -59 6 -5 23 -15 38 -23 25 -15 297 -172 327 -190 21 -12 416
-208 465 -230 22 -10 74 -35 116 -54 41 -20 79 -36 83 -36 8 0 28 -8 128 -54
31 -14 61 -26 67 -26 5 0 22 -6 38 -14 33 -17 100 -44 198 -81 39 -15 74 -31
79 -36 6 -5 17 -9 26 -9 8 0 32 -9 53 -20 20 -11 44 -20 52 -20 8 0 34 -9 57
-19 24 -11 70 -30 103 -42 33 -12 72 -28 87 -35 14 -8 32 -14 40 -14 7 -1 31
-9 53 -20 22 -11 47 -19 56 -20 8 0 24 -7 35 -15 10 -8 26 -15 34 -15 9 0 33
-9 55 -20 22 -11 44 -20 50 -20 5 -1 28 -9 50 -20 22 -11 46 -19 52 -20 7 0
34 -10 60 -21 94 -42 108 -48 146 -59 51 -16 67 -49 41 -82 -46 -58 -361 -421
-454 -523 -20 -22 -63 -69 -96 -105 -32 -36 -63 -70 -69 -76 -35 -39 -378
-383 -451 -454 -81 -78 -228 -212 -313 -285 -19 -17 -42 -37 -51 -45 -97 -91
-429 -355 -457 -364 -22 -7 -30 -1 -133 111 -111 120 -232 268 -301 367 -19
27 -46 66 -61 88 -16 21 -28 43 -28 48 0 6 -4 10 -8 10 -4 0 -23 26 -42 58
-19 31 -37 59 -40 62 -6 5 -57 89 -93 153 -9 18 -35 64 -57 102 -22 39 -78
149 -126 245 -90 183 -100 204 -134 285 -11 28 -28 63 -35 78 -8 16 -15 34
-15 40 0 7 -9 29 -20 50 -11 20 -20 45 -20 55 0 10 -6 26 -14 37 -7 11 -18 36
-24 55 -6 19 -22 67 -37 105 -26 70 -42 121 -70 217 -8 29 -19 56 -25 62 -5 5
-10 18 -10 28 0 18 -23 99 -60 213 -11 33 -20 70 -20 82 0 12 -6 37 -14 55
-15 34 -39 126 -61 238 -8 36 -18 83 -24 105 -27 109 -51 225 -51 247 0 14 -6
43 -14 64 -7 22 -16 70 -20 107 -4 37 -12 82 -17 100 -6 18 -14 68 -19 112 -6
44 -13 99 -16 123 -6 38 -5 42 14 42 12 0 66 -41 129 -97z m6684 77 c134 -10
213 -25 344 -63 92 -26 276 -97 296 -114 8 -7 22 -13 30 -14 8 0 37 -14 64
-30 28 -16 61 -35 75 -42 14 -6 39 -21 55 -31 17 -11 68 -45 115 -75 118 -76
281 -204 440 -346 74 -66 137 -123 140 -127 8 -11 121 -46 170 -53 25 -3 65
-12 90 -20 25 -7 70 -19 100 -25 30 -6 84 -17 120 -25 88 -18 199 -45 235 -57
17 -6 54 -14 84 -19 29 -5 66 -16 82 -24 15 -8 36 -15 47 -15 10 0 27 -6 38
-14 18 -14 18 -15 -9 -25 -16 -6 -70 -11 -121 -11 -52 0 -131 -6 -177 -14 -46
-8 -113 -17 -149 -21 -36 -3 -92 -12 -125 -20 -33 -7 -80 -18 -105 -24 -75
-17 -153 -40 -187 -56 -17 -8 -35 -15 -40 -15 -4 0 -33 -13 -63 -30 -30 -16
-64 -34 -76 -39 -62 -28 -344 -360 -464 -547 -8 -12 -51 -77 -95 -143 -99
-148 -149 -228 -193 -306 -13 -22 -33 -58 -46 -80 -13 -22 -38 -67 -56 -100
-17 -33 -49 -91 -70 -130 -49 -91 -245 -481 -305 -610 -26 -55 -62 -131 -80
-170 -64 -136 -112 -240 -119 -255 -3 -8 -10 -22 -15 -30 -5 -8 -20 -37 -32
-65 -70 -160 -250 -525 -262 -532 -16 -10 -42 30 -76 119 -31 81 -37 95 -80
189 -12 25 -21 49 -21 54 0 4 -9 26 -19 49 -45 97 -81 175 -104 226 -14 30
-31 66 -36 80 -6 14 -15 32 -20 40 -5 8 -20 38 -34 65 -71 142 -182 335 -264
460 -66 100 -72 110 -103 150 -14 18 -32 43 -40 55 -8 12 -20 28 -25 34 -6 6
-39 47 -75 91 -35 44 -73 89 -85 101 -11 11 -56 58 -99 103 -119 122 -238 230
-358 323 -121 94 -198 151 -212 157 -5 2 -43 27 -85 55 -42 29 -83 55 -91 59
-8 4 -33 18 -55 32 -22 14 -53 32 -70 41 -16 8 -48 26 -70 39 -22 12 -86 46
-142 75 -87 44 -103 56 -103 76 0 21 76 117 206 261 16 17 56 62 89 100 193
221 517 539 695 683 30 25 60 50 65 56 16 19 262 193 290 206 14 6 25 15 25
19 0 4 9 11 21 14 12 4 35 17 53 29 17 11 81 45 141 75 61 29 122 59 137 67
14 8 32 14 40 14 7 1 31 9 53 20 22 11 48 19 58 20 10 0 30 6 45 14 15 8 46
17 67 21 22 3 65 12 95 21 30 8 107 18 170 23 63 4 122 9 131 10 8 0 76 -4
150 -9z m-2685 -2097 c135 -70 175 -91 235 -127 125 -73 160 -94 209 -128 30
-20 89 -60 130 -88 41 -28 82 -59 91 -68 9 -9 29 -26 45 -37 73 -52 155 -126
281 -253 171 -173 330 -372 430 -541 21 -35 46 -75 56 -90 9 -14 24 -39 32
-56 9 -16 26 -48 39 -70 22 -37 169 -329 201 -400 14 -31 57 -128 80 -180 7
-16 22 -51 34 -76 12 -25 21 -53 21 -61 0 -8 4 -18 9 -23 5 -6 21 -41 36 -80
15 -38 36 -89 46 -112 11 -23 19 -46 19 -50 0 -5 9 -26 20 -48 11 -22 20 -46
20 -55 0 -9 7 -26 16 -38 26 -37 11 -70 -34 -77 -20 -3 -62 -12 -92 -19 -91
-23 -230 -49 -305 -57 -38 -4 -81 -12 -95 -17 -14 -5 -62 -13 -105 -16 -44 -4
-118 -13 -165 -21 -212 -35 -749 -61 -955 -46 -384 27 -444 33 -510 46 -38 7
-104 18 -145 24 -84 12 -165 27 -225 42 -22 6 -67 16 -100 23 -33 7 -76 18
-95 24 -19 6 -57 18 -85 27 -27 9 -66 20 -85 25 -42 10 -123 38 -165 56 -16 7
-47 18 -67 24 -21 6 -40 16 -43 21 -4 5 -13 9 -22 9 -9 0 -34 9 -57 19 -39 19
-115 52 -146 65 -8 3 -23 10 -32 16 -37 21 -55 31 -126 67 -89 46 -128 67
-167 93 -16 11 -43 27 -60 36 -27 15 -113 71 -140 91 -6 5 -33 24 -60 43 -51
35 -66 46 -88 66 -7 6 -22 16 -35 23 -22 12 -29 45 -14 66 4 6 54 49 112 95
58 46 107 87 110 90 3 3 32 28 65 55 129 107 229 197 454 410 256 242 611 615
863 905 36 41 80 93 99 114 19 22 50 58 69 80 20 23 56 66 80 96 25 30 56 66
69 80 13 14 30 35 38 48 25 37 67 28 209 -45z m-2477 -2311 c127 -101 290
-217 373 -267 260 -156 491 -275 668 -345 30 -12 73 -30 96 -41 23 -10 50 -19
60 -19 11 0 28 -6 39 -14 11 -7 36 -17 55 -21 19 -4 48 -13 65 -20 16 -7 62
-22 100 -33 39 -11 95 -28 125 -36 30 -9 78 -21 105 -26 28 -5 61 -13 75 -18
14 -5 50 -13 80 -17 30 -4 72 -14 94 -21 21 -8 57 -14 80 -14 23 0 68 -7 101
-15 32 -9 111 -20 175 -25 63 -5 151 -14 195 -21 126 -20 898 -17 1040 4 61 8
156 18 212 21 56 3 114 11 128 16 15 6 72 14 128 19 56 5 114 14 130 20 15 6
62 13 105 17 70 6 80 5 86 -11 15 -39 -264 -333 -476 -502 -64 -51 -121 -93
-127 -93 -5 0 -14 -6 -18 -12 -8 -13 -57 -49 -83 -61 -8 -4 -46 -27 -85 -52
-62 -39 -290 -156 -370 -190 -16 -7 -50 -22 -75 -33 -25 -11 -63 -27 -85 -35
-112 -41 -156 -56 -225 -77 -41 -12 -93 -29 -115 -36 -22 -7 -60 -16 -85 -20
-25 -4 -53 -11 -63 -16 -10 -5 -53 -16 -95 -23 -42 -8 -102 -19 -132 -25 -117
-23 -168 -32 -245 -41 -44 -5 -127 -16 -185 -24 -185 -26 -696 -38 -1065 -25
-181 6 -379 17 -440 25 -60 7 -155 17 -210 20 -55 4 -131 13 -168 21 -38 8
-90 14 -117 14 -27 0 -94 9 -150 20 -56 11 -120 20 -143 20 -23 0 -58 5 -77
10 -19 6 -80 17 -135 25 -55 8 -116 19 -135 25 -19 5 -48 10 -64 10 -16 0 -68
9 -115 19 -96 22 -161 35 -271 56 -76 14 -121 24 -240 52 -36 8 -91 19 -123
24 -32 5 -66 13 -75 18 -9 5 -39 12 -67 16 -27 4 -68 13 -90 20 -22 8 -62 17
-90 20 -27 4 -58 11 -68 17 -10 5 -46 14 -80 19 -34 6 -66 14 -72 18 -5 5 -35
13 -65 19 -77 14 -188 41 -235 58 -23 8 -50 14 -60 14 -11 0 -47 9 -80 19 -70
23 -125 37 -214 56 -61 13 -81 25 -81 53 0 7 12 17 28 23 15 6 45 19 67 30 22
10 72 30 110 45 39 14 74 30 79 35 6 5 16 9 24 9 8 0 47 15 86 34 39 19 98 46
131 61 33 14 74 32 90 40 211 94 745 362 915 459 25 14 59 32 75 41 17 9 39
21 50 28 11 7 54 31 95 55 75 43 111 64 173 102 17 11 43 25 57 32 14 7 30 16
35 21 21 16 86 57 91 57 2 0 27 16 54 35 27 19 52 35 55 35 2 0 40 24 83 54
43 29 83 55 88 57 16 6 234 156 304 209 36 27 73 49 84 49 10 1 57 -30 105
-67z"/>
</g>
</svg>
